<svg xmlns="http://www.w3.org/2000/svg" direction="ltr" width="2048" height="768" viewBox="-18771.496201104554 15265.72865599563 2048 768" stroke-linecap="round" stroke-linejoin="round" data-color-mode="light" class="tl-container tl-theme__force-sRGB tl-theme__light" style="background-color: transparent;"><defs/><g transform="matrix(1, 0, 0, 1, -18771.4962, 15265.7287)" opacity="1"><g data-lovart-layer-name="Logo_VisionLife_Version_Corregida_Original_SVG"><g transform="scale(1, 1)"><g>
<g xmlns="http://www.w3.org/2000/svg" stroke-width="2.00" fill="none" stroke-linecap="butt">
<path stroke="#016c50" d="M 306.97 278.06   Q 292.60 278.38 278.42 278.50   C 267.61 278.59 256.61 278.04 245.71 278.26   A 0.34 0.34 0.0 0 0 245.43 278.79   L 350.65 432.58"/>
<path stroke="#016565" d="M 350.65 432.58   L 390.05 490.32"/>
<path stroke="#015c77" d="M 390.05 490.32   L 449.72 577.45   A 0.44 0.44 0.0 0 0 450.44 577.45   L 499.91 505.50"/>
<path stroke="#016565" d="M 499.91 505.50   L 560.92 417.28"/>
<path stroke="#016c50" d="M 560.92 417.28   L 655.08 278.84   A 0.35 0.34 17.0 0 0 654.79 278.30   L 595.18 278.10"/>
<path stroke="#7e7705" d="M 595.18 278.10   L 639.87 211.81   A 0.35 0.34 -72.9 0 0 639.59 211.27   L 539.63 211.27   A 0.98 0.96 -72.7 0 0 538.83 211.70   L 451.95 340.48"/>
<path stroke="#296c36" d="M 451.95 340.48   L 450.12 343.15   A 0.60 0.60 0.0 0 1 449.12 343.15   L 414.77 292.20"/>
<path stroke="#7e7705" d="M 414.77 292.20   L 360.63 211.82   A 1.04 1.03 72.8 0 0 359.77 211.36   L 262.74 211.36   A 0.38 0.37 -17.6 0 0 262.43 211.95   Q 285.14 244.11 306.97 278.06"/>
<path stroke="#a6e33b" d="M 414.77 292.20   L 404.96 295.76"/>
<path stroke="#7e7705" d="M 404.96 295.76   L 355.71 222.03   A 1.75 1.75 0.0 0 0 354.26 221.26   L 281.94 221.26   A 0.44 0.44 0.0 0 0 281.58 221.94   L 320.64 280.17"/>
<path stroke="#a6e33b" d="M 320.64 280.17   Q 316.57 283.81 310.41 283.18"/>
<path stroke="#7ee355" d="M 310.41 283.18   L 306.97 278.06"/>
<path stroke="#29d886" d="M 310.41 283.18   L 313.76 288.08"/>
<path stroke="#016c50" d="M 313.76 288.08   L 264.75 288.14   A 0.27 0.27 0.0 0 0 264.52 288.55   Q 269.69 296.89 275.40 305.11   C 285.49 319.64 294.06 332.53 304.04 346.58   C 308.36 352.66 311.09 358.34 315.47 364.08   Q 320.84 371.12 323.79 376.25   C 326.64 381.20 330.46 385.14 333.27 389.90   C 337.09 396.39 342.73 403.43 346.79 410.00   C 350.74 416.40 355.77 422.62 359.97 429.77   Q 360.81 431.19 363.25 433.75"/>
<path stroke="#01d1b5" d="M 363.25 433.75   C 358.98 432.20 354.60 430.46 350.65 432.58"/>
<path stroke="#296c36" d="M 404.96 295.76   L 442.92 352.15   A 1.10 1.09 45.4 0 1 442.92 353.36   L 420.02 387.24"/>
<path stroke="#016c50" d="M 420.02 387.24   L 406.77 407.03   A 0.64 0.64 0.0 0 1 405.70 407.03   L 394.97 390.73"/>
<path stroke="#296c36" d="M 394.97 390.73   L 320.64 280.17"/>
<path stroke="#29d886" d="M 394.97 390.73   L 382.48 390.57"/>
<path stroke="#296c36" d="M 382.48 390.57   L 313.76 288.08"/>
<path stroke="#29d886" d="M 428.35 392.73   Q 425.15 388.53 420.02 387.24"/>
<path stroke="#01c1db" d="M 399.47 487.22   Q 393.83 483.17 390.05 490.32"/>
<path stroke="#016c50" d="M 382.48 390.57   L 400.05 416.31"/>
<path stroke="#016565" d="M 400.05 416.31   L 376.28 452.02   A 0.43 0.43 0.0 0 1 375.56 452.02   L 363.25 433.75"/>
<path stroke="#01d1b5" d="M 409.33 420.60   Q 408.11 418.20 406.49 417.32   Q 403.42 415.65 400.05 416.31"/>
<path stroke="#296c36" d="M 528.84 356.76   L 493.56 407.40   A 0.47 0.47 0.0 0 1 492.79 407.40   L 458.72 357.49   A 0.23 0.22 45.8 0 0 458.36 357.48   L 452.63 365.36   A 0.79 0.77 -44.4 0 0 452.61 366.26   L 486.53 415.95   A 1.23 1.22 -45.3 0 1 486.53 417.34   L 478.03 429.85"/>
<path stroke="#016c50" d="M 478.03 429.85   L 463.02 451.06"/>
<path stroke="#016565" d="M 463.02 451.06   L 450.00 469.62   A 0.81 0.81 0.0 0 1 448.67 469.61   L 415.65 421.25   A 0.18 0.17 46.0 0 0 415.37 421.24   L 409.40 429.43   A 0.37 0.37 0.0 0 0 409.40 429.87   L 448.68 487.41   A 0.54 0.53 -44.2 0 0 449.56 487.42   L 469.34 459.52"/>
<path stroke="#016c50" d="M 469.34 459.52   L 487.28 434.03"/>
<path stroke="#296c36" d="M 487.28 434.03   L 539.87 357.97"/>
<path stroke="#016c50" d="M 588.08 288.17   L 636.28 288.26   A 0.36 0.36 0.0 0 1 636.58 288.82   L 552.32 412.50"/>
<path stroke="#016565" d="M 552.32 412.50   L 524.65 452.44   A 0.45 0.45 0.0 0 1 523.91 452.44   L 503.26 422.19   A 0.15 0.15 0.0 0 0 503.01 422.19   L 497.10 430.30   A 0.21 0.20 -43.8 0 0 497.09 430.54   L 518.00 461.15   A 1.17 1.16 45.5 0 1 517.99 462.46   L 490.64 501.89"/>
<path stroke="#015c77" d="M 490.64 501.89   L 450.35 560.36   A 0.57 0.56 -44.8 0 1 449.42 560.36   L 399.47 487.22"/>
<path stroke="#016565" d="M 399.47 487.22   L 382.34 461.96   A 1.43 1.43 0.0 0 1 382.34 460.36   L 409.33 420.60"/>
<path stroke="#016c50" d="M 409.33 420.60   L 428.35 392.73"/>
<path stroke="#296c36" d="M 428.35 392.73   L 462.57 342.39"/>
<path stroke="#7ee355" d="M 595.18 278.10   L 588.08 288.17"/>
<path stroke="#7e7705" d="M 588.08 288.17   L 539.87 357.97"/>
<path stroke="#a6e33b" d="M 539.87 357.97   Q 533.62 358.91 528.84 356.76"/>
<path stroke="#7e7705" d="M 528.84 356.76   L 621.08 221.74   A 0.36 0.36 0.0 0 0 620.78 221.17   L 544.89 221.17   A 0.72 0.70 16.8 0 0 544.30 221.48   L 462.57 342.39"/>
<path stroke="#a6e33b" d="M 462.57 342.39   Q 456.91 344.81 451.95 340.48"/>
<path stroke="#01c1db" d="M 499.91 505.50   Q 495.87 502.34 490.64 501.89"/>
<path stroke="#29d886" d="M 487.28 434.03   Q 483.77 429.57 478.03 429.85"/>
<path stroke="#01d1b5" d="M 463.02 451.06   C 466.67 452.98 470.98 453.84 469.34 459.52"/>
<path stroke="#01d1b5" d="M 560.92 417.28   L 552.32 412.50"/>
<path stroke="#808080" d="M 1633.0615 283.8702   A 18.01 17.58 -177.2 0 0 1650.1912 302.3090   A 18.01 17.58 -177.2 0 0 1669.0385 285.6298   A 18.01 17.58 -177.2 0 0 1651.9088 267.1910   A 18.01 17.58 -177.2 0 0 1633.0615 283.8702"/>
<path stroke="#808080" d="M 1112.1639 284.5676   A 17.78 17.40 -178.8 0 0 1129.5756 302.3362   A 17.78 17.40 -178.8 0 0 1147.7161 285.3124   A 17.78 17.40 -178.8 0 0 1130.3044 267.5438   A 17.78 17.40 -178.8 0 0 1112.1639 284.5676"/>
<path stroke="#808080" d="M 954.9798 283.1192   A 17.68 17.43 -6.4 0 0 935.4671 267.7686   A 17.68 17.43 -6.4 0 0 919.8402 287.0608   A 17.68 17.43 -6.4 0 0 939.3529 302.4114   A 17.68 17.43 -6.4 0 0 954.9798 283.1192"/>
<path stroke="#808080" d="M 1776.71 291.06   L 1776.71 270.35   A 0.58 0.57 -83.7 0 0 1776.27 269.79   Q 1763.19 266.78 1751.28 268.05   Q 1739.72 269.28 1732.46 273.28   C 1720.01 280.13 1713.09 292.94 1712.80 307.52   Q 1712.57 318.96 1712.67 329.16   A 0.59 0.59 0.0 0 1 1712.08 329.76   L 1689.37 329.76   A 0.86 0.86 0.0 0 0 1688.51 330.62   L 1688.51 350.63   A 0.69 0.68 90.0 0 0 1689.19 351.32   L 1712.01 351.32   A 0.68 0.68 0.0 0 1 1712.69 352.00   L 1712.69 464.33   A 1.12 1.12 0.0 0 0 1713.81 465.45   L 1738.25 465.45   A 0.48 0.47 -0.0 0 0 1738.73 464.98   L 1738.73 351.62   A 0.31 0.30 90.0 0 1 1739.03 351.31   L 1774.35 351.31   A 0.61 0.61 0.0 0 0 1774.96 350.70   L 1774.96 330.39   A 0.62 0.61 0.0 0 0 1774.34 329.78   L 1739.15 329.78   A 0.40 0.40 0.0 0 1 1738.75 329.39   Q 1738.52 320.31 1738.88 310.55   C 1739.71 288.14 1759.59 288.59 1776.03 291.62   A 0.58 0.57 5.1 0 0 1776.71 291.06"/>
<path stroke="#808080" d="M 900.68 270.14   L 872.98 270.14   A 0.96 0.95 -80.6 0 0 872.08 270.79   L 816.32 436.33   A 0.36 0.36 0.0 0 1 815.64 436.33   L 760.44 270.52   A 0.56 0.56 0.0 0 0 759.91 270.14   L 729.51 270.14   A 0.50 0.49 -9.9 0 0 729.04 270.80   L 800.60 464.66   A 1.17 1.17 0.0 0 0 801.70 465.43   L 830.48 465.43   A 1.14 1.13 9.9 0 0 831.55 464.68   L 901.17 270.83   A 0.52 0.52 0.0 0 0 900.68 270.14"/>
<path stroke="#808080" d="M 1522.84 441.18   A 0.79 0.79 0.0 0 1 1522.05 440.39   L 1522.05 270.93   A 0.79 0.79 0.0 0 0 1521.26 270.14   L 1493.49 270.14   A 0.79 0.79 0.0 0 0 1492.70 270.93   L 1492.70 464.64   A 0.79 0.79 0.0 0 0 1493.49 465.43   L 1613.84 465.43   A 0.79 0.79 0.0 0 0 1614.63 464.64   L 1614.63 441.97   A 0.79 0.79 0.0 0 0 1613.84 441.18   L 1522.84 441.18"/>
<path stroke="#808080" d="M 1169.42 393.40   C 1167.65 423.61 1182.80 451.63 1211.37 462.95   C 1230.97 470.72 1255.96 469.81 1274.40 459.31   C 1295.64 447.22 1306.99 425.76 1308.41 401.53   C 1309.82 377.30 1301.06 354.66 1281.37 340.17   C 1264.28 327.60 1239.57 323.78 1219.20 329.21   C 1189.51 337.11 1171.19 363.18 1169.42 393.40"/>
<path stroke="#808080" d="M 1359.27 349.22   L 1359.27 330.60   A 0.81 0.81 0.0 0 0 1358.46 329.79   L 1334.76 329.79   A 0.37 0.37 0.0 0 0 1334.39 330.16   L 1334.39 464.58   A 0.86 0.86 0.0 0 0 1335.25 465.44   L 1359.02 465.44   A 0.60 0.59 2.6 0 0 1359.62 464.90   Q 1359.98 461.25 1359.95 457.25   Q 1359.75 433.18 1359.90 390.16   C 1359.97 371.02 1369.85 354.69 1389.20 350.31   C 1407.77 346.11 1425.55 353.26 1429.64 373.36   Q 1431.08 380.41 1431.09 385.01   Q 1431.13 414.10 1431.07 464.89   A 0.55 0.55 0.0 0 0 1431.62 465.44   L 1456.06 465.44   A 0.49 0.48 1.2 0 0 1456.55 464.98   Q 1456.79 460.72 1456.79 457.25   Q 1456.75 401.89 1456.64 381.77   C 1456.47 353.39 1444.37 331.97 1414.45 327.67   C 1393.58 324.67 1371.45 330.18 1359.99 349.42   A 0.39 0.39 0.0 0 1 1359.27 349.22"/>
<path stroke="#808080" d="M 1910.39 428.44   L 1886.85 428.44   A 0.86 0.86 0.0 0 0 1886.09 428.90   C 1875.73 449.20 1845.68 451.18 1828.51 439.64   C 1817.40 432.18 1810.73 418.17 1810.32 404.64   A 0.55 0.55 0.0 0 1 1810.87 404.07   L 1913.50 404.07   A 0.53 0.52 -86.9 0 0 1914.02 403.60   C 1917.13 370.10 1903.53 336.69 1867.99 328.75   C 1842.86 323.13 1817.09 330.05 1800.56 350.32   C 1785.30 369.03 1782.36 396.20 1787.96 419.06   C 1793.94 443.50 1811.91 461.49 1836.76 466.51   Q 1851.71 469.53 1867.68 466.43   Q 1895.45 461.03 1907.99 436.77   Q 1909.25 434.33 1910.86 429.08   A 0.49 0.49 0.0 0 0 1910.39 428.44"/>
<path stroke="#808080" d="M 1086.36 364.58   Q 1085.75 354.84 1078.91 345.58   C 1065.02 326.73 1034.65 323.87 1014.28 329.82   C 994.13 335.71 979.12 350.89 981.68 373.08   C 983.40 387.98 995.58 398.20 1009.30 402.25   Q 1019.05 405.13 1027.28 406.42   C 1036.99 407.94 1046.36 408.68 1054.45 412.74   C 1066.94 419.01 1067.17 434.00 1056.29 441.85   C 1050.89 445.75 1043.97 446.92 1037.28 447.31   C 1023.68 448.09 1005.96 443.74 1002.23 428.79   A 0.51 0.49 82.4 0 0 1001.75 428.41   L 978.44 428.41   A 0.41 0.41 0.0 0 0 978.03 428.86   C 980.46 455.29 1006.21 466.96 1029.72 467.91   C 1053.59 468.87 1082.06 461.69 1088.40 435.67   C 1092.23 419.93 1087.83 404.32 1073.70 395.28   C 1059.63 386.29 1037.52 385.57 1026.22 383.09   C 1016.85 381.03 1007.11 377.63 1006.63 366.53   C 1006.17 355.88 1015.66 350.65 1024.68 348.93   C 1038.42 346.31 1058.03 348.79 1062.87 364.59   A 0.89 0.89 0.0 0 0 1063.72 365.22   L 1085.76 365.22   A 0.60 0.60 0.0 0 0 1086.36 364.58"/>
<path stroke="#808080" d="M 950.51 330.71   A 0.94 0.94 0.0 0 0 949.57 329.77   L 925.45 329.77   A 0.94 0.94 0.0 0 0 924.51 330.71   L 924.51 464.47   A 0.94 0.94 0.0 0 0 925.45 465.41   L 949.57 465.41   A 0.94 0.94 0.0 0 0 950.51 464.47   L 950.51 330.71"/>
<path stroke="#808080" d="M 1143.10 330.57   A 0.76 0.76 0.0 0 0 1142.34 329.81   L 1118.02 329.81   A 0.76 0.76 0.0 0 0 1117.26 330.57   L 1117.26 464.67   A 0.76 0.76 0.0 0 0 1118.02 465.43   L 1142.34 465.43   A 0.76 0.76 0.0 0 0 1143.10 464.67   L 1143.10 330.57"/>
<path stroke="#808080" d="M 1663.83 330.50   A 0.72 0.72 0.0 0 0 1663.11 329.78   L 1638.59 329.78   A 0.72 0.72 0.0 0 0 1637.87 330.50   L 1637.87 464.74   A 0.72 0.72 0.0 0 0 1638.59 465.46   L 1663.11 465.46   A 0.72 0.72 0.0 0 0 1663.83 464.74   L 1663.83 330.50"/>
<path stroke="#808080" d="M 1195.40 397.33   C 1195.16 423.03 1210.57 446.10 1238.49 446.37   C 1266.41 446.64 1282.26 423.87 1282.51 398.17   C 1282.76 372.47 1267.35 349.40 1239.43 349.13   C 1211.51 348.86 1195.65 371.63 1195.40 397.33"/>
<path stroke="#808080" d="M 1811.21 385.74   L 1888.53 385.74   A 0.68 0.68 0.0 0 0 1889.21 385.03   C 1888.51 368.24 1878.22 353.02 1861.52 349.46   C 1840.77 345.04 1821.81 353.38 1813.62 373.67   Q 1811.18 379.73 1810.58 385.02   A 0.64 0.64 0.0 0 0 1811.21 385.74"/>
</g>
<path xmlns="http://www.w3.org/2000/svg" fill="#000000" d="M 2048.00 0.00   L 2048.00 768.00   L 0.00 768.00   L 0.00 0.00   L 2048.00 0.00   Z   M 306.97 278.06   Q 292.60 278.38 278.42 278.50   C 267.61 278.59 256.61 278.04 245.71 278.26   A 0.34 0.34 0.0 0 0 245.43 278.79   L 350.65 432.58   L 390.05 490.32   L 449.72 577.45   A 0.44 0.44 0.0 0 0 450.44 577.45   L 499.91 505.50   L 560.92 417.28   L 655.08 278.84   A 0.35 0.34 17.0 0 0 654.79 278.30   L 595.18 278.10   L 639.87 211.81   A 0.35 0.34 -72.9 0 0 639.59 211.27   L 539.63 211.27   A 0.98 0.96 -72.7 0 0 538.83 211.70   L 451.95 340.48   L 450.12 343.15   A 0.60 0.60 0.0 0 1 449.12 343.15   L 414.77 292.20   L 360.63 211.82   A 1.04 1.03 72.8 0 0 359.77 211.36   L 262.74 211.36   A 0.38 0.37 -17.6 0 0 262.43 211.95   Q 285.14 244.11 306.97 278.06   Z   M 1633.0615 283.8702   A 18.01 17.58 -177.2 0 0 1650.1912 302.3090   A 18.01 17.58 -177.2 0 0 1669.0385 285.6298   A 18.01 17.58 -177.2 0 0 1651.9088 267.1910   A 18.01 17.58 -177.2 0 0 1633.0615 283.8702   Z   M 1112.1639 284.5676   A 17.78 17.40 -178.8 0 0 1129.5756 302.3362   A 17.78 17.40 -178.8 0 0 1147.7161 285.3124   A 17.78 17.40 -178.8 0 0 1130.3044 267.5438   A 17.78 17.40 -178.8 0 0 1112.1639 284.5676   Z   M 954.9798 283.1192   A 17.68 17.43 -6.4 0 0 935.4671 267.7686   A 17.68 17.43 -6.4 0 0 919.8402 287.0608   A 17.68 17.43 -6.4 0 0 939.3529 302.4114   A 17.68 17.43 -6.4 0 0 954.9798 283.1192   Z   M 1776.71 291.06   L 1776.71 270.35   A 0.58 0.57 -83.7 0 0 1776.27 269.79   Q 1763.19 266.78 1751.28 268.05   Q 1739.72 269.28 1732.46 273.28   C 1720.01 280.13 1713.09 292.94 1712.80 307.52   Q 1712.57 318.96 1712.67 329.16   A 0.59 0.59 0.0 0 1 1712.08 329.76   L 1689.37 329.76   A 0.86 0.86 0.0 0 0 1688.51 330.62   L 1688.51 350.63   A 0.69 0.68 90.0 0 0 1689.19 351.32   L 1712.01 351.32   A 0.68 0.68 0.0 0 1 1712.69 352.00   L 1712.69 464.33   A 1.12 1.12 0.0 0 0 1713.81 465.45   L 1738.25 465.45   A 0.48 0.47 -0.0 0 0 1738.73 464.98   L 1738.73 351.62   A 0.31 0.30 90.0 0 1 1739.03 351.31   L 1774.35 351.31   A 0.61 0.61 0.0 0 0 1774.96 350.70   L 1774.96 330.39   A 0.62 0.61 0.0 0 0 1774.34 329.78   L 1739.15 329.78   A 0.40 0.40 0.0 0 1 1738.75 329.39   Q 1738.52 320.31 1738.88 310.55   C 1739.71 288.14 1759.59 288.59 1776.03 291.62   A 0.58 0.57 5.1 0 0 1776.71 291.06   Z   M 900.68 270.14   L 872.98 270.14   A 0.96 0.95 -80.6 0 0 872.08 270.79   L 816.32 436.33   A 0.36 0.36 0.0 0 1 815.64 436.33   L 760.44 270.52   A 0.56 0.56 0.0 0 0 759.91 270.14   L 729.51 270.14   A 0.50 0.49 -9.9 0 0 729.04 270.80   L 800.60 464.66   A 1.17 1.17 0.0 0 0 801.70 465.43   L 830.48 465.43   A 1.14 1.13 9.9 0 0 831.55 464.68   L 901.17 270.83   A 0.52 0.52 0.0 0 0 900.68 270.14   Z   M 1522.84 441.18   A 0.79 0.79 0.0 0 1 1522.05 440.39   L 1522.05 270.93   A 0.79 0.79 0.0 0 0 1521.26 270.14   L 1493.49 270.14   A 0.79 0.79 0.0 0 0 1492.70 270.93   L 1492.70 464.64   A 0.79 0.79 0.0 0 0 1493.49 465.43   L 1613.84 465.43   A 0.79 0.79 0.0 0 0 1614.63 464.64   L 1614.63 441.97   A 0.79 0.79 0.0 0 0 1613.84 441.18   L 1522.84 441.18   Z   M 1169.42 393.40   C 1167.65 423.61 1182.80 451.63 1211.37 462.95   C 1230.97 470.72 1255.96 469.81 1274.40 459.31   C 1295.64 447.22 1306.99 425.76 1308.41 401.53   C 1309.82 377.30 1301.06 354.66 1281.37 340.17   C 1264.28 327.60 1239.57 323.78 1219.20 329.21   C 1189.51 337.11 1171.19 363.18 1169.42 393.40   Z   M 1359.27 349.22   L 1359.27 330.60   A 0.81 0.81 0.0 0 0 1358.46 329.79   L 1334.76 329.79   A 0.37 0.37 0.0 0 0 1334.39 330.16   L 1334.39 464.58   A 0.86 0.86 0.0 0 0 1335.25 465.44   L 1359.02 465.44   A 0.60 0.59 2.6 0 0 1359.62 464.90   Q 1359.98 461.25 1359.95 457.25   Q 1359.75 433.18 1359.90 390.16   C 1359.97 371.02 1369.85 354.69 1389.20 350.31   C 1407.77 346.11 1425.55 353.26 1429.64 373.36   Q 1431.08 380.41 1431.09 385.01   Q 1431.13 414.10 1431.07 464.89   A 0.55 0.55 0.0 0 0 1431.62 465.44   L 1456.06 465.44   A 0.49 0.48 1.2 0 0 1456.55 464.98   Q 1456.79 460.72 1456.79 457.25   Q 1456.75 401.89 1456.64 381.77   C 1456.47 353.39 1444.37 331.97 1414.45 327.67   C 1393.58 324.67 1371.45 330.18 1359.99 349.42   A 0.39 0.39 0.0 0 1 1359.27 349.22   Z   M 1910.39 428.44   L 1886.85 428.44   A 0.86 0.86 0.0 0 0 1886.09 428.90   C 1875.73 449.20 1845.68 451.18 1828.51 439.64   C 1817.40 432.18 1810.73 418.17 1810.32 404.64   A 0.55 0.55 0.0 0 1 1810.87 404.07   L 1913.50 404.07   A 0.53 0.52 -86.9 0 0 1914.02 403.60   C 1917.13 370.10 1903.53 336.69 1867.99 328.75   C 1842.86 323.13 1817.09 330.05 1800.56 350.32   C 1785.30 369.03 1782.36 396.20 1787.96 419.06   C 1793.94 443.50 1811.91 461.49 1836.76 466.51   Q 1851.71 469.53 1867.68 466.43   Q 1895.45 461.03 1907.99 436.77   Q 1909.25 434.33 1910.86 429.08   A 0.49 0.49 0.0 0 0 1910.39 428.44   Z   M 1086.36 364.58   Q 1085.75 354.84 1078.91 345.58   C 1065.02 326.73 1034.65 323.87 1014.28 329.82   C 994.13 335.71 979.12 350.89 981.68 373.08   C 983.40 387.98 995.58 398.20 1009.30 402.25   Q 1019.05 405.13 1027.28 406.42   C 1036.99 407.94 1046.36 408.68 1054.45 412.74   C 1066.94 419.01 1067.17 434.00 1056.29 441.85   C 1050.89 445.75 1043.97 446.92 1037.28 447.31   C 1023.68 448.09 1005.96 443.74 1002.23 428.79   A 0.51 0.49 82.4 0 0 1001.75 428.41   L 978.44 428.41   A 0.41 0.41 0.0 0 0 978.03 428.86   C 980.46 455.29 1006.21 466.96 1029.72 467.91   C 1053.59 468.87 1082.06 461.69 1088.40 435.67   C 1092.23 419.93 1087.83 404.32 1073.70 395.28   C 1059.63 386.29 1037.52 385.57 1026.22 383.09   C 1016.85 381.03 1007.11 377.63 1006.63 366.53   C 1006.17 355.88 1015.66 350.65 1024.68 348.93   C 1038.42 346.31 1058.03 348.79 1062.87 364.59   A 0.89 0.89 0.0 0 0 1063.72 365.22   L 1085.76 365.22   A 0.60 0.60 0.0 0 0 1086.36 364.58   Z   M 950.51 330.71   A 0.94 0.94 0.0 0 0 949.57 329.77   L 925.45 329.77   A 0.94 0.94 0.0 0 0 924.51 330.71   L 924.51 464.47   A 0.94 0.94 0.0 0 0 925.45 465.41   L 949.57 465.41   A 0.94 0.94 0.0 0 0 950.51 464.47   L 950.51 330.71   Z   M 1143.10 330.57   A 0.76 0.76 0.0 0 0 1142.34 329.81   L 1118.02 329.81   A 0.76 0.76 0.0 0 0 1117.26 330.57   L 1117.26 464.67   A 0.76 0.76 0.0 0 0 1118.02 465.43   L 1142.34 465.43   A 0.76 0.76 0.0 0 0 1143.10 464.67   L 1143.10 330.57   Z   M 1663.83 330.50   A 0.72 0.72 0.0 0 0 1663.11 329.78   L 1638.59 329.78   A 0.72 0.72 0.0 0 0 1637.87 330.50   L 1637.87 464.74   A 0.72 0.72 0.0 0 0 1638.59 465.46   L 1663.11 465.46   A 0.72 0.72 0.0 0 0 1663.83 464.74   L 1663.83 330.50   Z"/>
<path xmlns="http://www.w3.org/2000/svg" fill="#fbee0a" d="M 414.77 292.20   L 404.96 295.76   L 355.71 222.03   A 1.75 1.75 0.0 0 0 354.26 221.26   L 281.94 221.26   A 0.44 0.44 0.0 0 0 281.58 221.94   L 320.64 280.17   Q 316.57 283.81 310.41 283.18   L 306.97 278.06   Q 285.14 244.11 262.43 211.95   A 0.38 0.37 -17.6 0 1 262.74 211.36   L 359.77 211.36   A 1.04 1.03 72.8 0 1 360.63 211.82   L 414.77 292.20   Z"/>
<path xmlns="http://www.w3.org/2000/svg" fill="#fbee0a" d="M 595.18 278.10   L 588.08 288.17   L 539.87 357.97   Q 533.62 358.91 528.84 356.76   L 621.08 221.74   A 0.36 0.36 0.0 0 0 620.78 221.17   L 544.89 221.17   A 0.72 0.70 16.8 0 0 544.30 221.48   L 462.57 342.39   Q 456.91 344.81 451.95 340.48   L 538.83 211.70   A 0.98 0.96 -72.7 0 1 539.63 211.27   L 639.59 211.27   A 0.35 0.34 -72.9 0 1 639.87 211.81   L 595.18 278.10   Z"/>
<path xmlns="http://www.w3.org/2000/svg" fill="#000000" d="M 528.84 356.76   L 493.56 407.40   A 0.47 0.47 0.0 0 1 492.79 407.40   L 458.72 357.49   A 0.23 0.22 45.8 0 0 458.36 357.48   L 452.63 365.36   A 0.79 0.77 -44.4 0 0 452.61 366.26   L 486.53 415.95   A 1.23 1.22 -45.3 0 1 486.53 417.34   L 478.03 429.85   L 463.02 451.06   L 450.00 469.62   A 0.81 0.81 0.0 0 1 448.67 469.61   L 415.65 421.25   A 0.18 0.17 46.0 0 0 415.37 421.24   L 409.40 429.43   A 0.37 0.37 0.0 0 0 409.40 429.87   L 448.68 487.41   A 0.54 0.53 -44.2 0 0 449.56 487.42   L 469.34 459.52   L 487.28 434.03   L 539.87 357.97   L 588.08 288.17   L 636.28 288.26   A 0.36 0.36 0.0 0 1 636.58 288.82   L 552.32 412.50   L 524.65 452.44   A 0.45 0.45 0.0 0 1 523.91 452.44   L 503.26 422.19   A 0.15 0.15 0.0 0 0 503.01 422.19   L 497.10 430.30   A 0.21 0.20 -43.8 0 0 497.09 430.54   L 518.00 461.15   A 1.17 1.16 45.5 0 1 517.99 462.46   L 490.64 501.89   L 450.35 560.36   A 0.57 0.56 -44.8 0 1 449.42 560.36   L 399.47 487.22   L 382.34 461.96   A 1.43 1.43 0.0 0 1 382.34 460.36   L 409.33 420.60   L 428.35 392.73   L 462.57 342.39   L 544.30 221.48   A 0.72 0.70 16.8 0 1 544.89 221.17   L 620.78 221.17   A 0.36 0.36 0.0 0 1 621.08 221.74   L 528.84 356.76   Z"/>
<path xmlns="http://www.w3.org/2000/svg" fill="#000000" d="M 404.96 295.76   L 442.92 352.15   A 1.10 1.09 45.4 0 1 442.92 353.36   L 420.02 387.24   L 406.77 407.03   A 0.64 0.64 0.0 0 1 405.70 407.03   L 394.97 390.73   L 320.64 280.17   L 281.58 221.94   A 0.44 0.44 0.0 0 1 281.94 221.26   L 354.26 221.26   A 1.75 1.75 0.0 0 1 355.71 222.03   L 404.96 295.76   Z"/>
<ellipse xmlns="http://www.w3.org/2000/svg" fill="#ffffff" cx="0.00" cy="0.00" transform="translate(1651.05,284.75) rotate(-177.2)" rx="18.01" ry="17.58"/>
<ellipse xmlns="http://www.w3.org/2000/svg" fill="#ffffff" cx="0.00" cy="0.00" transform="translate(1129.94,284.94) rotate(-178.8)" rx="17.78" ry="17.40"/>
<ellipse xmlns="http://www.w3.org/2000/svg" fill="#ffffff" cx="0.00" cy="0.00" transform="translate(937.41,285.09) rotate(-6.4)" rx="17.68" ry="17.43"/>
<path xmlns="http://www.w3.org/2000/svg" fill="#ffffff" d="M 1776.03 291.62   C 1759.59 288.59 1739.71 288.14 1738.88 310.55   Q 1738.52 320.31 1738.75 329.39   A 0.40 0.40 0.0 0 0 1739.15 329.78   L 1774.34 329.78   A 0.62 0.61 -0.0 0 1 1774.96 330.39   L 1774.96 350.70   A 0.61 0.61 0.0 0 1 1774.35 351.31   L 1739.03 351.31   A 0.31 0.30 90.0 0 0 1738.73 351.62   L 1738.73 464.98   A 0.48 0.47 0.0 0 1 1738.25 465.45   L 1713.81 465.45   A 1.12 1.12 0.0 0 1 1712.69 464.33   L 1712.69 352.00   A 0.68 0.68 0.0 0 0 1712.01 351.32   L 1689.19 351.32   A 0.69 0.68 -90.0 0 1 1688.51 350.63   L 1688.51 330.62   A 0.86 0.86 0.0 0 1 1689.37 329.76   L 1712.08 329.76   A 0.59 0.59 0.0 0 0 1712.67 329.16   Q 1712.57 318.96 1712.80 307.52   C 1713.09 292.94 1720.01 280.13 1732.46 273.28   Q 1739.72 269.28 1751.28 268.05   Q 1763.19 266.78 1776.27 269.79   A 0.58 0.57 -83.7 0 1 1776.71 270.35   L 1776.71 291.06   A 0.58 0.57 5.1 0 1 1776.03 291.62   Z"/>
<path xmlns="http://www.w3.org/2000/svg" fill="#ffffff" d="M 900.68 270.14   A 0.52 0.52 0.0 0 1 901.17 270.83   L 831.55 464.68   A 1.14 1.13 9.9 0 1 830.48 465.43   L 801.70 465.43   A 1.17 1.17 0.0 0 1 800.60 464.66   L 729.04 270.80   A 0.50 0.49 -9.9 0 1 729.51 270.14   L 759.91 270.14   A 0.56 0.56 0.0 0 1 760.44 270.52   L 815.64 436.33   A 0.36 0.36 0.0 0 0 816.32 436.33   L 872.08 270.79   A 0.96 0.95 -80.6 0 1 872.98 270.14   L 900.68 270.14   Z"/>
<path xmlns="http://www.w3.org/2000/svg" fill="#ffffff" d="M 1522.84 441.18   L 1613.84 441.18   A 0.79 0.79 0.0 0 1 1614.63 441.97   L 1614.63 464.64   A 0.79 0.79 0.0 0 1 1613.84 465.43   L 1493.49 465.43   A 0.79 0.79 0.0 0 1 1492.70 464.64   L 1492.70 270.93   A 0.79 0.79 0.0 0 1 1493.49 270.14   L 1521.26 270.14   A 0.79 0.79 0.0 0 1 1522.05 270.93   L 1522.05 440.39   A 0.79 0.79 0.0 0 0 1522.84 441.18   Z"/>
<path xmlns="http://www.w3.org/2000/svg" fill="#01d8a0" d="M 310.41 283.18   L 313.76 288.08   L 264.75 288.14   A 0.27 0.27 0.0 0 0 264.52 288.55   Q 269.69 296.89 275.40 305.11   C 285.49 319.64 294.06 332.53 304.04 346.58   C 308.36 352.66 311.09 358.34 315.47 364.08   Q 320.84 371.12 323.79 376.25   C 326.64 381.20 330.46 385.14 333.27 389.90   C 337.09 396.39 342.73 403.43 346.79 410.00   C 350.74 416.40 355.77 422.62 359.97 429.77   Q 360.81 431.19 363.25 433.75   C 358.98 432.20 354.60 430.46 350.65 432.58   L 245.43 278.79   A 0.34 0.34 0.0 0 1 245.71 278.26   C 256.61 278.04 267.61 278.59 278.42 278.50   Q 292.60 278.38 306.97 278.06   L 310.41 283.18   Z"/>
<path xmlns="http://www.w3.org/2000/svg" fill="#01d8a0" d="M 595.18 278.10   L 654.79 278.30   A 0.35 0.34 17.0 0 1 655.08 278.84   L 560.92 417.28   L 552.32 412.50   L 636.58 288.82   A 0.36 0.36 0.0 0 0 636.28 288.26   L 588.08 288.17   L 595.18 278.10   Z"/>
<path xmlns="http://www.w3.org/2000/svg" fill="#51d76c" d="M 394.97 390.73   L 382.48 390.57   L 313.76 288.08   L 310.41 283.18   Q 316.57 283.81 320.64 280.17   L 394.97 390.73   Z"/>
<path xmlns="http://www.w3.org/2000/svg" fill="#000000" d="M 313.76 288.08   L 382.48 390.57   L 400.05 416.31   L 376.28 452.02   A 0.43 0.43 0.0 0 1 375.56 452.02   L 363.25 433.75   Q 360.81 431.19 359.97 429.77   C 355.77 422.62 350.74 416.40 346.79 410.00   C 342.73 403.43 337.09 396.39 333.27 389.90   C 330.46 385.14 326.64 381.20 323.79 376.25   Q 320.84 371.12 315.47 364.08   C 311.09 358.34 308.36 352.66 304.04 346.58   C 294.06 332.53 285.49 319.64 275.40 305.11   Q 269.69 296.89 264.52 288.55   A 0.27 0.27 0.0 0 1 264.75 288.14   L 313.76 288.08   Z"/>
<path xmlns="http://www.w3.org/2000/svg" fill="#51d76c" d="M 414.77 292.20   L 449.12 343.15   A 0.60 0.60 0.0 0 0 450.12 343.15   L 451.95 340.48   Q 456.91 344.81 462.57 342.39   L 428.35 392.73   Q 425.15 388.53 420.02 387.24   L 442.92 353.36   A 1.10 1.09 45.4 0 0 442.92 352.15   L 404.96 295.76   L 414.77 292.20   Z"/>
<path xmlns="http://www.w3.org/2000/svg" fill="#ffffff" d="M 1308.41 401.53   C 1306.99 425.76 1295.64 447.22 1274.40 459.31   C 1255.96 469.81 1230.97 470.72 1211.37 462.95   C 1182.80 451.63 1167.65 423.61 1169.42 393.40   C 1171.19 363.18 1189.51 337.11 1219.20 329.21   C 1239.57 323.78 1264.28 327.60 1281.37 340.17   C 1301.06 354.66 1309.82 377.30 1308.41 401.53   Z   M 1195.40 397.33   C 1195.16 423.03 1210.57 446.10 1238.49 446.37   C 1266.41 446.64 1282.26 423.87 1282.51 398.17   C 1282.76 372.47 1267.35 349.40 1239.43 349.13   C 1211.51 348.86 1195.65 371.63 1195.40 397.33   Z"/>
<path xmlns="http://www.w3.org/2000/svg" fill="#ffffff" d="M 1359.27 349.22   A 0.39 0.39 0.0 0 0 1359.99 349.42   C 1371.45 330.18 1393.58 324.67 1414.45 327.67   C 1444.37 331.97 1456.47 353.39 1456.64 381.77   Q 1456.75 401.89 1456.79 457.25   Q 1456.79 460.72 1456.55 464.98   A 0.49 0.48 1.2 0 1 1456.06 465.44   L 1431.62 465.44   A 0.55 0.55 0.0 0 1 1431.07 464.89   Q 1431.13 414.10 1431.09 385.01   Q 1431.08 380.41 1429.64 373.36   C 1425.55 353.26 1407.77 346.11 1389.20 350.31   C 1369.85 354.69 1359.97 371.02 1359.90 390.16   Q 1359.75 433.18 1359.95 457.25   Q 1359.98 461.25 1359.62 464.90   A 0.60 0.59 2.6 0 1 1359.02 465.44   L 1335.25 465.44   A 0.86 0.86 0.0 0 1 1334.39 464.58   L 1334.39 330.16   A 0.37 0.37 0.0 0 1 1334.76 329.79   L 1358.46 329.79   A 0.81 0.81 0.0 0 1 1359.27 330.60   L 1359.27 349.22   Z"/>
<path xmlns="http://www.w3.org/2000/svg" fill="#ffffff" d="M 1910.86 429.08   Q 1909.25 434.33 1907.99 436.77   Q 1895.45 461.03 1867.68 466.43   Q 1851.71 469.53 1836.76 466.51   C 1811.91 461.49 1793.94 443.50 1787.96 419.06   C 1782.36 396.20 1785.30 369.03 1800.56 350.32   C 1817.09 330.05 1842.86 323.13 1867.99 328.75   C 1903.53 336.69 1917.13 370.10 1914.02 403.60   A 0.53 0.52 -86.9 0 1 1913.50 404.07   L 1810.87 404.07   A 0.55 0.55 0.0 0 0 1810.32 404.64   C 1810.73 418.17 1817.40 432.18 1828.51 439.64   C 1845.68 451.18 1875.73 449.20 1886.09 428.90   A 0.86 0.86 0.0 0 1 1886.85 428.44   L 1910.39 428.44   A 0.49 0.49 0.0 0 1 1910.86 429.08   Z   M 1811.21 385.74   L 1888.53 385.74   A 0.68 0.68 0.0 0 0 1889.21 385.03   C 1888.51 368.24 1878.22 353.02 1861.52 349.46   C 1840.77 345.04 1821.81 353.38 1813.62 373.67   Q 1811.18 379.73 1810.58 385.02   A 0.64 0.64 0.0 0 0 1811.21 385.74   Z"/>
<path xmlns="http://www.w3.org/2000/svg" fill="#ffffff" d="M 1085.76 365.22   L 1063.72 365.22   A 0.89 0.89 0.0 0 1 1062.87 364.59   C 1058.03 348.79 1038.42 346.31 1024.68 348.93   C 1015.66 350.65 1006.17 355.88 1006.63 366.53   C 1007.11 377.63 1016.85 381.03 1026.22 383.09   C 1037.52 385.57 1059.63 386.29 1073.70 395.28   C 1087.83 404.32 1092.23 419.93 1088.40 435.67   C 1082.06 461.69 1053.59 468.87 1029.72 467.91   C 1006.21 466.96 980.46 455.29 978.03 428.86   A 0.41 0.41 0.0 0 1 978.44 428.41   L 1001.75 428.41   A 0.51 0.49 82.4 0 1 1002.23 428.79   C 1005.96 443.74 1023.68 448.09 1037.28 447.31   C 1043.97 446.92 1050.89 445.75 1056.29 441.85   C 1067.17 434.00 1066.94 419.01 1054.45 412.74   C 1046.36 408.68 1036.99 407.94 1027.28 406.42   Q 1019.05 405.13 1009.30 402.25   C 995.58 398.20 983.40 387.98 981.68 373.08   C 979.12 350.89 994.13 335.71 1014.28 329.82   C 1034.65 323.87 1065.02 326.73 1078.91 345.58   Q 1085.75 354.84 1086.36 364.58   A 0.60 0.60 0.0 0 1 1085.76 365.22   Z"/>
<rect xmlns="http://www.w3.org/2000/svg" fill="#ffffff" x="924.51" y="329.77" width="26.00" height="135.64" rx="0.94"/>
<rect xmlns="http://www.w3.org/2000/svg" fill="#ffffff" x="1117.26" y="329.81" width="25.84" height="135.62" rx="0.76"/>
<rect xmlns="http://www.w3.org/2000/svg" fill="#ffffff" x="1637.87" y="329.78" width="25.96" height="135.68" rx="0.72"/>
<path xmlns="http://www.w3.org/2000/svg" fill="#000000" d="M 1810.58 385.02   Q 1811.18 379.73 1813.62 373.67   C 1821.81 353.38 1840.77 345.04 1861.52 349.46   C 1878.22 353.02 1888.51 368.24 1889.21 385.03   A 0.68 0.68 0.0 0 1 1888.53 385.74   L 1811.21 385.74   A 0.64 0.64 0.0 0 1 1810.58 385.02   Z"/>
<path xmlns="http://www.w3.org/2000/svg" fill="#000000" d="M 1239.43 349.13   C 1267.35 349.40 1282.76 372.47 1282.51 398.17   C 1282.26 423.87 1266.41 446.64 1238.49 446.37   C 1210.57 446.10 1195.16 423.03 1195.40 397.33   C 1195.65 371.63 1211.51 348.86 1239.43 349.13   Z"/>
<path xmlns="http://www.w3.org/2000/svg" fill="#51d76c" d="M 528.84 356.76   Q 533.62 358.91 539.87 357.97   L 487.28 434.03   Q 483.77 429.57 478.03 429.85   L 486.53 417.34   A 1.23 1.22 -45.3 0 0 486.53 415.95   L 452.61 366.26   A 0.79 0.77 -44.4 0 1 452.63 365.36   L 458.36 357.48   A 0.23 0.22 45.8 0 1 458.72 357.49   L 492.79 407.40   A 0.47 0.47 0.0 0 0 493.56 407.40   L 528.84 356.76   Z"/>
<path xmlns="http://www.w3.org/2000/svg" fill="#01d8a0" d="M 428.35 392.73   L 409.33 420.60   Q 408.11 418.20 406.49 417.32   Q 403.42 415.65 400.05 416.31   L 382.48 390.57   L 394.97 390.73   L 405.70 407.03   A 0.64 0.64 0.0 0 0 406.77 407.03   L 420.02 387.24   Q 425.15 388.53 428.35 392.73   Z"/>
<path xmlns="http://www.w3.org/2000/svg" fill="#01c9c9" d="M 552.32 412.50   L 560.92 417.28   L 499.91 505.50   Q 495.87 502.34 490.64 501.89   L 517.99 462.46   A 1.17 1.16 45.5 0 0 518.00 461.15   L 497.09 430.54   A 0.21 0.20 -43.8 0 1 497.10 430.30   L 503.01 422.19   A 0.15 0.15 0.0 0 1 503.26 422.19   L 523.91 452.44   A 0.45 0.45 0.0 0 0 524.65 452.44   L 552.32 412.50   Z"/>
<path xmlns="http://www.w3.org/2000/svg" fill="#01c9c9" d="M 409.33 420.60   L 382.34 460.36   A 1.43 1.43 0.0 0 0 382.34 461.96   L 399.47 487.22   Q 393.83 483.17 390.05 490.32   L 350.65 432.58   C 354.60 430.46 358.98 432.20 363.25 433.75   L 375.56 452.02   A 0.43 0.43 0.0 0 0 376.28 452.02   L 400.05 416.31   Q 403.42 415.65 406.49 417.32   Q 408.11 418.20 409.33 420.60   Z"/>
<path xmlns="http://www.w3.org/2000/svg" fill="#01c9c9" d="M 463.02 451.06   C 466.67 452.98 470.98 453.84 469.34 459.52   L 449.56 487.42   A 0.54 0.53 -44.2 0 1 448.68 487.41   L 409.40 429.87   A 0.37 0.37 0.0 0 1 409.40 429.43   L 415.37 421.24   A 0.18 0.17 46.0 0 1 415.65 421.25   L 448.67 469.61   A 0.81 0.81 0.0 0 0 450.00 469.62   L 463.02 451.06   Z"/>
<path xmlns="http://www.w3.org/2000/svg" fill="#01d8a0" d="M 487.28 434.03   L 469.34 459.52   C 470.98 453.84 466.67 452.98 463.02 451.06   L 478.03 429.85   Q 483.77 429.57 487.28 434.03   Z"/>
<path xmlns="http://www.w3.org/2000/svg" fill="#01b8ed" d="M 399.47 487.22   L 449.42 560.36   A 0.57 0.56 -44.8 0 0 450.35 560.36   L 490.64 501.89   Q 495.87 502.34 499.91 505.50   L 450.44 577.45   A 0.44 0.44 0.0 0 1 449.72 577.45   L 390.05 490.32   Q 393.83 483.17 399.47 487.22   Z"/>
</g></g></g></g></svg>